<mxfile host="app.diagrams.net" modified="2021-05-14T09:43:40.479Z" agent="5.0 (Windows NT 10.0; Win64; x64) AppleWebKit/537.36 (KHTML, like Gecko) Chrome/90.0.4430.93 Safari/537.36 Edg/90.0.818.56" etag="M5-rMvx9LPJfY_0QbUTf" version="14.6.13" type="github">
  <diagram id="EA3oRSc1JFXG0sm-RrvY" name="Page-1">
    <mxGraphModel dx="1038" dy="580" grid="1" gridSize="10" guides="1" tooltips="1" connect="1" arrows="1" fold="1" page="1" pageScale="1" pageWidth="850" pageHeight="1100" math="0" shadow="0">
      <root>
        <mxCell id="0" />
        <mxCell id="1" parent="0" />
        <mxCell id="9opiF8UKzZI0sY4IGnWm-9" value="" style="edgeStyle=orthogonalEdgeStyle;rounded=0;orthogonalLoop=1;jettySize=auto;html=1;" edge="1" parent="1" source="9opiF8UKzZI0sY4IGnWm-1" target="9opiF8UKzZI0sY4IGnWm-2">
          <mxGeometry relative="1" as="geometry" />
        </mxCell>
        <mxCell id="9opiF8UKzZI0sY4IGnWm-1" value="Material App" style="rounded=1;whiteSpace=wrap;html=1;" vertex="1" parent="1">
          <mxGeometry x="365" y="60" width="120" height="60" as="geometry" />
        </mxCell>
        <mxCell id="9opiF8UKzZI0sY4IGnWm-10" value="" style="edgeStyle=orthogonalEdgeStyle;rounded=0;orthogonalLoop=1;jettySize=auto;html=1;" edge="1" parent="1" source="9opiF8UKzZI0sY4IGnWm-2" target="9opiF8UKzZI0sY4IGnWm-4">
          <mxGeometry relative="1" as="geometry" />
        </mxCell>
        <mxCell id="9opiF8UKzZI0sY4IGnWm-13" style="edgeStyle=orthogonalEdgeStyle;rounded=0;orthogonalLoop=1;jettySize=auto;html=1;" edge="1" parent="1" source="9opiF8UKzZI0sY4IGnWm-2" target="9opiF8UKzZI0sY4IGnWm-5">
          <mxGeometry relative="1" as="geometry" />
        </mxCell>
        <mxCell id="9opiF8UKzZI0sY4IGnWm-15" style="edgeStyle=orthogonalEdgeStyle;rounded=0;orthogonalLoop=1;jettySize=auto;html=1;entryX=0.5;entryY=0;entryDx=0;entryDy=0;" edge="1" parent="1" source="9opiF8UKzZI0sY4IGnWm-2" target="9opiF8UKzZI0sY4IGnWm-3">
          <mxGeometry relative="1" as="geometry" />
        </mxCell>
        <mxCell id="9opiF8UKzZI0sY4IGnWm-2" value="home: Scaffold" style="rounded=1;whiteSpace=wrap;html=1;" vertex="1" parent="1">
          <mxGeometry x="365" y="160" width="120" height="60" as="geometry" />
        </mxCell>
        <mxCell id="9opiF8UKzZI0sY4IGnWm-3" value="backgroundColor:&lt;br&gt;Colors.blueGrey" style="rounded=1;whiteSpace=wrap;html=1;" vertex="1" parent="1">
          <mxGeometry x="80" y="280" width="120" height="60" as="geometry" />
        </mxCell>
        <mxCell id="9opiF8UKzZI0sY4IGnWm-11" value="" style="edgeStyle=orthogonalEdgeStyle;rounded=0;orthogonalLoop=1;jettySize=auto;html=1;" edge="1" parent="1" source="9opiF8UKzZI0sY4IGnWm-4" target="9opiF8UKzZI0sY4IGnWm-7">
          <mxGeometry relative="1" as="geometry" />
        </mxCell>
        <mxCell id="9opiF8UKzZI0sY4IGnWm-12" value="" style="edgeStyle=orthogonalEdgeStyle;rounded=0;orthogonalLoop=1;jettySize=auto;html=1;" edge="1" parent="1" source="9opiF8UKzZI0sY4IGnWm-4">
          <mxGeometry relative="1" as="geometry">
            <mxPoint x="260" y="390" as="targetPoint" />
          </mxGeometry>
        </mxCell>
        <mxCell id="9opiF8UKzZI0sY4IGnWm-4" value="appBar: AppBar" style="rounded=1;whiteSpace=wrap;html=1;" vertex="1" parent="1">
          <mxGeometry x="365" y="280" width="120" height="60" as="geometry" />
        </mxCell>
        <mxCell id="9opiF8UKzZI0sY4IGnWm-14" style="edgeStyle=orthogonalEdgeStyle;rounded=0;orthogonalLoop=1;jettySize=auto;html=1;entryX=0.5;entryY=0;entryDx=0;entryDy=0;" edge="1" parent="1" source="9opiF8UKzZI0sY4IGnWm-5" target="9opiF8UKzZI0sY4IGnWm-8">
          <mxGeometry relative="1" as="geometry" />
        </mxCell>
        <mxCell id="9opiF8UKzZI0sY4IGnWm-5" value="body: Center" style="rounded=1;whiteSpace=wrap;html=1;" vertex="1" parent="1">
          <mxGeometry x="560" y="280" width="120" height="60" as="geometry" />
        </mxCell>
        <mxCell id="9opiF8UKzZI0sY4IGnWm-6" value="backgroundColor: Colors.blueyGrey[]" style="rounded=1;whiteSpace=wrap;html=1;" vertex="1" parent="1">
          <mxGeometry x="200" y="392" width="120" height="60" as="geometry" />
        </mxCell>
        <mxCell id="9opiF8UKzZI0sY4IGnWm-7" value="title: Text(&#39;I am rich&#39;)" style="rounded=1;whiteSpace=wrap;html=1;" vertex="1" parent="1">
          <mxGeometry x="365" y="392" width="120" height="60" as="geometry" />
        </mxCell>
        <mxCell id="9opiF8UKzZI0sY4IGnWm-17" value="" style="edgeStyle=orthogonalEdgeStyle;rounded=0;orthogonalLoop=1;jettySize=auto;html=1;" edge="1" parent="1" source="9opiF8UKzZI0sY4IGnWm-8" target="9opiF8UKzZI0sY4IGnWm-16">
          <mxGeometry relative="1" as="geometry" />
        </mxCell>
        <mxCell id="9opiF8UKzZI0sY4IGnWm-8" value="child: Image" style="rounded=1;whiteSpace=wrap;html=1;" vertex="1" parent="1">
          <mxGeometry x="560" y="389" width="120" height="60" as="geometry" />
        </mxCell>
        <mxCell id="9opiF8UKzZI0sY4IGnWm-16" value="image :&lt;br&gt;NetworkImage(&#39;https://&#39;&#39;)" style="rounded=1;whiteSpace=wrap;html=1;" vertex="1" parent="1">
          <mxGeometry x="560" y="500" width="120" height="60" as="geometry" />
        </mxCell>
      </root>
    </mxGraphModel>
  </diagram>
</mxfile>
